<svg viewBox="0 0 24 24" xmlns="http://www.w3.org/2000/svg"><path d="m21.5 3h-2.75-.00000001c-.138071-.00000001-.25-.111929-.25-.25v-1.75c0-.552285-.447715-1-1-1s-1 .447715-1 1v4.75c0 .414214-.335786.75-.75.75h-.00000003c-.414214-.00000002-.75-.335786-.75-.75v-2.25c0-.276142-.223858-.5-.5-.5h-6.25-.00000001c-.137682.00000109-.249449-.11132-.25-.249v-1.751-.00000753c0-.552285-.447715-1-1-1s-1 .447715-1 1v.00001506 4.75c0 .414214-.335786.75-.75.75h-.00000003c-.414214-.00000002-.75-.335786-.75-.75v-2.25001c0-.276142-.223858-.5-.5-.5h-1.5-.00000009c-1.10457.00000005-2 .895431-2 2v17-.0000003c-.00000017 1.10457.89543 2 2 2h19-.00000009c1.10457.00000005 2-.89543 2-2v-17c0-1.10457-.89543-2-2-2zm-.5 19h-18-.00000002c-.276142-.00000001-.5-.223858-.5-.5v-12 .00000008c-.00000004-.276142.223858-.5.5-.5h18-.00000002c.276142-.00000001.5.223858.5.5v12 .00000002c0 .276142-.223858.5-.5.5-.00000001 0-.00000002 0-.00000002 0z"/></svg>